<?xml version="1.0" encoding="UTF-8" standalone="no"?>
<svg
   width="600"
   height="400"
   viewBox="0 0 600 400"
   version="1.1"
   id="svg12"
   sodipodi:docname="svgviewer-output.svg"
   inkscape:version="1.3.2 (091e20ef0f, 2023-11-25)"
   xmlns:inkscape="http://www.inkscape.org/namespaces/inkscape"
   xmlns:sodipodi="http://sodipodi.sourceforge.net/DTD/sodipodi-0.dtd"
   xmlns="http://www.w3.org/2000/svg"
   xmlns:svg="http://www.w3.org/2000/svg">
  <sodipodi:namedview
     id="namedview12"
     pagecolor="#505050"
     bordercolor="#eeeeee"
     borderopacity="1"
     inkscape:showpageshadow="0"
     inkscape:pageopacity="0"
     inkscape:pagecheckerboard="0"
     inkscape:deskcolor="#505050"
     inkscape:zoom="0.31790342"
     inkscape:cx="-77.06743"
     inkscape:cy="522.17116"
     inkscape:window-width="1920"
     inkscape:window-height="1011"
     inkscape:window-x="0"
     inkscape:window-y="0"
     inkscape:window-maximized="1"
     inkscape:current-layer="svg12" />
  <defs
     id="defs8">
    <linearGradient
       id="a"
       x1="0"
       y1="0"
       x2="0"
       y2="1">
      <stop
         offset="0%"
         stop-color="#b3e0ff"
         id="stop1" />
      <stop
         offset="100%"
         stop-color="#e0f7ff"
         id="stop2" />
    </linearGradient>
    <linearGradient
       id="d"
       x1="0"
       y1="0"
       x2="0"
       y2="1">
      <stop
         offset="0%"
         stop-color="#77c23e"
         id="stop3" />
      <stop
         offset="100%"
         stop-color="#4b9f2b"
         id="stop4" />
    </linearGradient>
    <linearGradient
       id="c"
       x1="834.386"
       y1="77.781746"
       x2="834.386"
       y2="106.06602"
       gradientTransform="matrix(0.35355339,0,0,3.2120288,0,-29.837211)"
       gradientUnits="userSpaceOnUse">
      <stop
         offset="0%"
         stop-color="#4b7b1f"
         id="stop5" />
      <stop
         offset="100%"
         stop-color="#2f5a16"
         id="stop6" />
    </linearGradient>
    <linearGradient
       id="b"
       x1="0"
       y1="0"
       x2="0"
       y2="1">
      <stop
         offset="0%"
         stop-color="#5e4e2f"
         id="stop7" />
      <stop
         offset="100%"
         stop-color="#7f5b2f"
         id="stop8" />
    </linearGradient>
  </defs>
  <path
     fill="url(#a)"
     d="M0 0h600v400H0z"
     id="path8" />
  <path
     fill="url(#b)"
     d="M0 300h600v100H0z"
     id="path9" />
  <ellipse
     cx="300"
     cy="295"
     rx="40"
     ry="5"
     fill="#adf"
     opacity=".3"
     id="ellipse9" />
  <rect
     x="295"
     y="220"
     width="10"
     height="90.849892"
     rx="3"
     fill="url(#c)"
     id="rect9"
     style="fill:url(#c);stroke-width:1.06566" />
  <path
     d="M300 280c-15-10-30-50-25-70s25-20 30 0 5 40-5 70"
     fill="url(#d)"
     id="path10" />
  <path
     d="M300 235c-5-15-5-45 5-60s20-15 15 0-10 45-20 60"
     fill="url(#d)"
     id="path11" />
  <path
     d="M300 270c15-10 35-50 30-70s-25-15-30 0-5 40 0 70"
     fill="url(#d)"
     id="path12" />
</svg>
