<svg width="600" height="400" viewBox="0 0 600 400" xmlns="http://www.w3.org/2000/svg"><defs><linearGradient id="a" x1="0" y1="0" x2="0" y2="1"><stop offset="0%" stop-color="#f8f9fa"/><stop offset="100%" stop-color="#fff"/></linearGradient><linearGradient id="d" x1="0" y1="0" x2="0" y2="1"><stop offset="0%" stop-color="#b9b47c"/><stop offset="100%" stop-color="#9a915b"/></linearGradient><linearGradient id="c" x1="0" y1="0" x2="0" y2="1"><stop offset="0%" stop-color="#8a7f4c"/><stop offset="100%" stop-color="#6c623a"/></linearGradient><pattern id="b" patternUnits="userSpaceOnUse" width="20" height="20"><path fill="#d9bc85" d="M0 0h20v20H0z"/><path d="M0 10h20M10 0v20M0 0l20 20m0-20L0 20" stroke="#9b6d33" stroke-width=".5"/></pattern></defs><path fill="url(#a)" d="M0 0h600v400H0z"/><path fill="url(#b)" d="M0 300h600v100H0z"/><rect x="297" y="220" width="6" height="80" rx="2" fill="url(#c)" transform="rotate(-2 300 220)"/><path d="M300 280c-15-10-30-50-20-70s15-20 18-5 1 45 2 75" fill="url(#d)"/><path d="M300 235c-5-15 0-35 8-45s7-10 2 5-5 25-10 40" fill="url(#d)"/><path d="M300 270c15-10 25-40 20-60s-15-25-17-10-8 40-3 70" fill="url(#d)"/></svg>