<svg width="600" height="400" viewBox="0 0 600 400" xmlns="http://www.w3.org/2000/svg"><defs><linearGradient id="a" x1="0" y1="0" x2="0" y2="1"><stop offset="0%" stop-color="#cbeafd"/><stop offset="100%" stop-color="#fff"/></linearGradient><linearGradient id="d" x1="0" y1="0" x2="0" y2="1"><stop offset="0%" stop-color="#6DAA37"/><stop offset="100%" stop-color="#4A8E2F"/></linearGradient><linearGradient id="c" x1="0" y1="0" x2="0" y2="1"><stop offset="0%" stop-color="#3F6B1E"/><stop offset="100%" stop-color="#274D12"/></linearGradient><linearGradient id="b" x1="0" y1="0" x2="0" y2="1"><stop offset="0%" stop-color="#7F5B2F"/><stop offset="100%" stop-color="#9b6d33"/></linearGradient></defs><path fill="url(#a)" d="M0 0h600v400H0z"/><path fill="url(#b)" d="M0 300h600v100H0z"/><rect x="295" y="220" width="10" height="80" rx="3" fill="url(#c)"/><path d="M300 280c-15-10-30-50-25-70s25-20 30 0 5 40-5 70" fill="url(#d)"/><path d="M300 235c-5-15-5-45 5-60s20-15 15 0-10 45-20 60" fill="url(#d)"/><path d="M300 270c15-10 35-50 30-70s-25-15-30 0-5 40 0 70" fill="url(#d)"/></svg>