<svg width="600" height="400" viewBox="0 0 600 400" xmlns="http://www.w3.org/2000/svg"><defs><linearGradient id="a" x1="0" y1="0" x2="0" y2="1"><stop offset="0%" stop-color="#eef6fa"/><stop offset="100%" stop-color="#fff"/></linearGradient><linearGradient id="d" x1="0" y1="0" x2="0" y2="1"><stop offset="0%" stop-color="#9fae6d"/><stop offset="100%" stop-color="#7e8d56"/></linearGradient><linearGradient id="c" x1="0" y1="0" x2="0" y2="1"><stop offset="0%" stop-color="#677a34"/><stop offset="100%" stop-color="#4f5f27"/></linearGradient><pattern id="b" patternUnits="userSpaceOnUse" width="10" height="10"><path fill="#c8a267" d="M0 0h10v10H0z"/><path d="M0 5h10M5 0v10" stroke="#9b6d33" stroke-width=".5"/></pattern></defs><path fill="url(#a)" d="M0 0h600v400H0z"/><path fill="url(#b)" d="M0 300h600v100H0z"/><rect x="295" y="220" width="10" height="80" rx="3" fill="url(#c)"/><path d="M300 280c-15-10-30-50-25-70s25-20 28-5-1 45-3 75" fill="url(#d)"/><path d="M300 235c-5-15-5-45 3-55 7-10 17 0 12 15s-10 25-15 40" fill="url(#d)"/><path d="M300 270c15-10 30-40 25-60s-15-25-20-10-10 40-5 70" fill="url(#d)"/></svg>